<svg xmlns="http://www.w3.org/2000/svg" width="49" height="48" fill="none" viewBox="0 0 49 48"><path stroke="#fff" stroke-linecap="round" stroke-linejoin="round" stroke-width="4" d="M30.1051 10.3616C32.1562 10.7525 34.0413 11.7321 35.519 13.1753C36.9968 14.6184 37.9999 16.4594 38.4001 18.4625M30.1051 2.1582C34.3666 2.62054 38.3404 4.48423 41.3742 7.44328C44.408 10.4023 46.3213 14.2808 46.8001 18.442M44.7001 34.8079V40.9604C44.7025 41.5316 44.5827 42.097 44.3484 42.6203C44.1141 43.1436 43.7704 43.6134 43.3395 43.9995C42.9085 44.3857 42.3997 44.6796 41.8457 44.8626C41.2916 45.0456 40.7046 45.1136 40.1221 45.0622C33.6601 44.3764 27.4528 42.22 21.9991 38.766C16.9251 35.6173 12.6233 31.4161 9.3991 26.4609C5.85006 21.1106 3.64141 15.0191 2.9521 8.67993C2.89963 8.1128 2.96864 7.54122 3.15475 7.00156C3.34087 6.46191 3.64 5.96601 4.03311 5.54544C4.42622 5.12488 4.90469 4.78886 5.43806 4.55878C5.97144 4.3287 6.54802 4.2096 7.1311 4.20906H13.4311C14.4502 4.19927 15.4383 4.55172 16.211 5.20072C16.9837 5.84972 17.4885 6.75099 17.6311 7.73654C17.897 9.7055 18.3901 11.6388 19.1011 13.4995C19.3836 14.2335 19.4448 15.0313 19.2773 15.7982C19.1098 16.5652 18.7207 17.2692 18.1561 17.8268L15.4891 20.4314C18.4786 25.5658 22.8317 29.817 28.0891 32.7365L30.7561 30.1319C31.3271 29.5805 32.0479 29.2005 32.8333 29.0369C33.6186 28.8734 34.4355 28.9331 35.1871 29.209C37.0924 29.9033 39.072 30.3849 41.0881 30.6446C42.1082 30.7852 43.0399 31.287 43.7058 32.0546C44.3718 32.8222 44.7257 33.8021 44.7001 34.8079Z"/></svg>